# xmcd
#
# Track frame offsets: 
#        150
#        20423
#        34837
#        49619
#        75555
#        91492
#        105340
#        125864
#        153331
#        176445
#
# Disc length: 2659 seconds
#
# Revision: 3
# Processed by: cddbd v1.5.2PL0 Copyright (c) Steve Scherf et al.
# Submitted via: ExactAudioCopy v0.99pb5
#
DISCID=720a610a
DTITLE=Sigh - Hangman's Hymn
DYEAR=2007
DGENRE=Black Metal
TTITLE0=Introitus - Kyrie
TTITLE1=Inked in Blood
TTITLE2=Me - Devil
TTITLE3=Dies Iræ - The Master Malice
TTITLE4=The Memories as a Sinner
TTITLE5=Death with Dishonor
TTITLE6=In Devil's Arms
TTITLE7=Overture - Rex Tremendae - I Saw The World's End
TTITLE8=Salvation in Flame - Confutatis
TTITLE9=Finale: Hangman's Hymn - In Paradisum - Das Ende
EXTD=Japan - The End Records\nhttp://sigh.gospel-virus.net\nhttp://www
EXTD=myspace.com/sighjapan\nhttp://www.myspace.com/sighmirai\n\nMirai
EXTD=Kawashima - Vocals, Orchestrations, Piano, Lyrics\nShinichi Ishi
EXTD=kawa - Guitars\nSatoshi Fujinami - Bass\nJunichi Harashima - Drum
EXTD=s
EXTT0=trumpet by Tim Conroy
EXTT1=
EXTT2=
EXTT3=guitar solo by Rob Urbinati (Scarface]\ntrumpet by Tim Conroy\nf
EXTT3=emale vocals by Aurielle Gregory (Giant Squid)
EXTT4=guitar solo by Chuck Keller (Ares Kingdom)
EXTT5=
EXTT6=guitar solo by Gunface (The Red Chord)
EXTT7=
EXTT8=
EXTT9=trumpet by Tim Conroy
PLAYORDER=
